<svg width="1359" height="993" viewBox="0 0 1359 993" fill="none" xmlns="http://www.w3.org/2000/svg">
<path d="M617 1.5L558 234.5V522L355 771V884" stroke="#4A4A4A" stroke-opacity="0.64"/>
<path d="M617 1.5C622.2 6.7 763 150.333 834 221L953 514.5V812.5" stroke="#4A4A4A" stroke-opacity="0.64"/>
<path d="M617.5 1L386.5 242L169.5 556" stroke="#4A4A4A" stroke-opacity="0.64"/>
<path d="M559.5 237C568.7 245.4 695.667 366.167 758 425.5" stroke="#4A4A4A" stroke-opacity="0.64"/>
<path d="M835.5 221.5L1213.5 499.5" stroke="#4A4A4A" stroke-opacity="0.64"/>
<path d="M559.5 524.5L758.5 779.5" stroke="#4A4A4A" stroke-opacity="0.64"/>
<path d="M388 236.5L439 367" stroke="#4A4A4A" stroke-opacity="0.64"/>
<path d="M1214 493.5L1087 682.5" stroke="#4A4A4A" stroke-opacity="0.64"/>
<path d="M1214 492L1345 681.5" stroke="#4A4A4A" stroke-opacity="0.64"/>
<path d="M167 551L19.5 688.5" stroke="#4A4A4A" stroke-opacity="0.64"/>
<path d="M168 548L356 766" stroke="#4A4A4A" stroke-opacity="0.64"/>
<rect x="413" y="346" width="39.2308" height="40" fill="white"/>
<rect x="413.5" y="346.5" width="38.2308" height="39" stroke="#4A4A4A" stroke-opacity="0.64"/>
<rect x="150" y="528" width="39.2308" height="40" fill="white"/>
<rect x="150.5" y="528.5" width="38.2308" height="39" stroke="#4A4A4A" stroke-opacity="0.64"/>
<rect x="540" y="499" width="39.2308" height="40" fill="white"/>
<rect x="540.5" y="499.5" width="38.2308" height="39" stroke="#4A4A4A" stroke-opacity="0.64"/>
<rect x="336" y="866" width="39.2308" height="40" fill="white"/>
<rect x="336.5" y="866.5" width="38.2308" height="39" stroke="#4A4A4A" stroke-opacity="0.64"/>
<rect x="933" y="493" width="39.2308" height="40" fill="white"/>
<rect x="933.5" y="493.5" width="38.2308" height="39" stroke="#4A4A4A" stroke-opacity="0.64"/>
<rect x="1319" y="657" width="39.2308" height="40" fill="white"/>
<rect x="1319.5" y="657.5" width="38.2308" height="39" stroke="#4A4A4A" stroke-opacity="0.64"/>
<path d="M762.5 778L599 969.5" stroke="#4A4A4A" stroke-opacity="0.64"/>
<path d="M757 778L899 973" stroke="#4A4A4A" stroke-opacity="0.64"/>
<rect x="1188" y="473" width="39.2308" height="40" fill="white"/>
<rect x="1188.5" y="473.5" width="38.2308" height="39" stroke="#4A4A4A" stroke-opacity="0.64"/>
<rect x="811" y="196" width="39.2308" height="40" rx="19.6154" fill="white"/>
<rect x="811.5" y="196.5" width="38.2308" height="39" rx="19.1154" stroke="#4A4A4A" stroke-opacity="0.64"/>
<rect x="740" y="407" width="39.2308" height="40" fill="white"/>
<rect x="740.5" y="407.5" width="38.2308" height="39" stroke="#4A4A4A" stroke-opacity="0.64"/>
<rect x="540" y="211" width="39.2308" height="40" fill="white"/>
<rect x="540.5" y="211.5" width="38.2308" height="39" stroke="#4A4A4A" stroke-opacity="0.64"/>
<path d="M389.5 240C381.5 240 235.167 295.833 200 313" stroke="#4A4A4A" stroke-opacity="0.64"/>
<rect x="174" y="293" width="39.2308" height="40" fill="white"/>
<rect x="174.5" y="293.5" width="38.2308" height="39" stroke="#4A4A4A" stroke-opacity="0.64"/>
<rect x="368" y="217" width="39.2308" height="40" rx="19.6154" fill="white"/>
<rect x="368.5" y="217.5" width="38.2308" height="39" rx="19.1154" stroke="#4A4A4A" stroke-opacity="0.64"/>
<rect y="669" width="39.2308" height="40" fill="white"/>
<rect x="0.5" y="669.5" width="38.2308" height="39" stroke="#4A4A4A" stroke-opacity="0.64"/>
<rect x="336" y="746" width="39.2308" height="40" rx="19.6154" fill="white"/>
<rect x="336.5" y="746.5" width="38.2308" height="39" rx="19.1154" stroke="#4A4A4A" stroke-opacity="0.64"/>
<rect x="739" y="766" width="39.2308" height="40" rx="19.6154" fill="white"/>
<rect x="739.5" y="766.5" width="38.2308" height="39" rx="19.1154" stroke="#4A4A4A" stroke-opacity="0.64"/>
<rect x="933" y="791" width="39.2308" height="40" fill="white"/>
<rect x="933.5" y="791.5" width="38.2308" height="39" stroke="#4A4A4A" stroke-opacity="0.64"/>
<rect x="1067" y="662" width="39.2308" height="40" rx="19.6154" fill="white"/>
<rect x="1067.5" y="662.5" width="38.2308" height="39" rx="19.1154" stroke="#4A4A4A" stroke-opacity="0.64"/>
<rect x="879" y="950" width="39.2308" height="40" fill="white"/>
<rect x="879.5" y="950.5" width="38.2308" height="39" stroke="#4A4A4A" stroke-opacity="0.64"/>
<rect x="578" y="953" width="39.2308" height="40" fill="white"/>
<rect x="578.5" y="953.5" width="38.2308" height="39" stroke="#4A4A4A" stroke-opacity="0.64"/>
</svg>
