<svg fill="none" xmlns="http://www.w3.org/2000/svg" viewBox="0 0 672 169">
  <g class="animate-bounce">
    <path d="M.582031 40.0414C.582031 19.0317 17.6138 2 38.6235 2h55.9433c21.0092 0 38.0412 17.0317 38.0412 38.0414V145.215H38.6235c-21.0097 0-38.041469-17.032-38.041469-38.042V40.0414z" fill="#312509"/>
    <circle cx="40.8541" cy="53.4772" r="13.4264" fill="#fff"/>
    <circle cx="92.3209" cy="53.4772" r="13.4264" fill="#fff"/>
    <ellipse cx="70.9669" cy="166.815" rx="46.7775" ry="2.18586" fill="#C4C4C4"/>
  </g>
  <path d="M255.125 31.625v67.0078c0 7.5942-1.617 14.1792-4.852 19.7582-3.234 5.531-7.875 9.75-13.921 12.656-6.047 2.906-13.196 4.359-21.446 4.359-12.468 0-22.289-3.234-29.461-9.703-7.172-6.469-10.828-15.328-10.968-26.578v-67.5h24.82v67.9922c.281 11.2028 5.484 16.8048 15.609 16.8048 5.11 0 8.977-1.406 11.602-4.219 2.625-2.812 3.937-7.383 3.937-13.7108V31.625h24.68zM350.334 134h-24.539l-36.282-63.7031V134h-24.679V31.625h24.679l36.211 63.7031V31.625h24.61V134zm9.849 0V31.625h32.977c9.047 0 17.179 2.0625 24.398 6.1875 7.219 4.0781 12.844 9.8672 16.875 17.3672 4.078 7.4531 6.141 15.8203 6.188 25.1015v4.711c0 9.375-1.993 17.7888-5.977 25.2418-3.937 7.407-9.516 13.219-16.734 17.438-7.172 4.172-15.188 6.281-24.047 6.328h-33.68zm24.68-83.3203v64.3363h8.578c7.078 0 12.516-2.508 16.312-7.524 3.797-5.062 5.696-12.5623 5.696-22.4998v-4.4297c0-9.8906-1.899-17.3437-5.696-22.3594-3.796-5.0156-9.328-7.5234-16.593-7.5234h-8.297zM473.814 134h-24.61V31.625h24.61V134zm96.896 0h-24.539L509.89 70.2969V134h-24.68V31.625h24.68l36.211 63.7031V31.625h24.609V134zm93.662-12.656c-3.797 4.218-9.352 7.617-16.664 10.195-7.313 2.578-15.328 3.867-24.047 3.867-13.406 0-24.117-4.101-32.133-12.304-8.015-8.204-12.305-19.618-12.867-34.2426L578.591 80c0-10.0781 1.781-18.8672 5.343-26.3672 3.563-7.5469 8.649-13.3359 15.258-17.3672 6.656-4.0781 14.344-6.1172 23.063-6.1172 12.75 0 22.64 2.9297 29.672 8.7891 7.078 5.8125 11.203 14.5078 12.375 26.0859h-23.766c-.844-5.7187-2.672-9.7968-5.484-12.2343-2.813-2.4375-6.797-3.6563-11.954-3.6563-6.187 0-10.968 2.625-14.343 7.875s-5.086 12.75-5.133 22.5v6.1875c0 10.2188 1.734 17.9067 5.203 23.0627 3.516 5.109 9.023 7.664 16.523 7.664 6.422 0 11.204-1.43 14.344-4.289V96.2422h-17.156V79.2969h41.836v42.0471z" fill="#312509"/>
</svg>
