<svg width="238" height="60" fill="none" xmlns="http://www.w3.org/2000/svg"><path fill-rule="evenodd" clip-rule="evenodd" d="M23.946 19.294L33.883 2l9.938 17.293h1.896L35.259 1.095C35.17.941 34.685.17 33.86.17c-.374 0-.911.16-1.352.926L22.05 19.294h1.896z" fill="#50AD34"/><path fill-rule="evenodd" clip-rule="evenodd" d="M33.645 39.969c.2.237.409.38.606.462a2.237 2.237 0 01-.621.096h-.82l-9.764 16.991-9.764-16.99h-.819c-.87 0-1.277-.38-1.466-.703.038.087.073.152.092.185l10.582 18.414c.44.766.978.927 1.35.927.827 0 1.313-.773 1.401-.927L35.004 40.01l.022-.041h-1.381z" fill="#1F4471"/><path fill-rule="evenodd" clip-rule="evenodd" d="M55.202 39.969c.2.237.41.38.607.462a2.235 2.235 0 01-.622.096h-.819l-9.764 16.991-9.764-16.99h-.82c-.87 0-1.277-.38-1.466-.703.038.087.073.152.092.185l10.582 18.414c.44.766.978.927 1.351.927.826 0 1.312-.773 1.4-.927L56.562 40.01l.191-.35-1.55.309z" fill="#E32215"/><path fill-rule="evenodd" clip-rule="evenodd" d="M24.316 19.546c-.413-.72-1.32-.756-1.498-.756H1.65c-.88 0-1.287.388-1.473.713-.413.72.01 1.529.1 1.684L10.857 39.6c.4.694 1.023.318 1.387.35l-.146-1.49L1.745 20.44h20.378v-.01h2.348a1.343 1.343 0 00-.155-.885z" fill="#22B0E6"/><path fill-rule="evenodd" clip-rule="evenodd" d="M43.331 19.549c.413-.72 1.321-.757 1.499-.757h21.166c.88 0 1.287.388 1.474.714.412.72-.01 1.529-.1 1.683L56.79 39.603c-.399.694-.45-.884-.813-.853l-.428-.288 10.355-18.018h-20.38v-.01h-2.348c-.058-.383.037-.68.155-.885z" fill="#F6A503"/><mask id="a" maskUnits="userSpaceOnUse" x="78" y="0" width="160" height="60"><path fill-rule="evenodd" clip-rule="evenodd" d="M137.522 1.63a9.392 9.392 0 00-3.246 2.247c-.904.966-1.608 2.132-2.111 3.497-.503 1.365-.754 2.88-.754 4.547 0 1.678.251 3.199.754 4.563.503 1.365 1.207 2.53 2.111 3.497a9.306 9.306 0 003.246 2.24c1.26.526 2.647.79 4.161.79 1.535 0 2.932-.264 4.192-.79a9.297 9.297 0 003.246-2.24c.905-.966 1.605-2.132 2.104-3.497.497-1.364.746-2.885.746-4.563 0-1.666-.249-3.182-.746-4.547-.499-1.365-1.199-2.533-2.104-3.505a9.249 9.249 0 00-3.246-2.246c-1.26-.527-2.657-.79-4.192-.79-1.514 0-2.901.266-4.161.798zm.648 19.356a7.62 7.62 0 01-2.743-1.918c-.767-.838-1.362-1.858-1.783-3.06-.422-1.2-.633-2.563-.633-4.087 0-1.512.211-2.873.633-4.08.421-1.206 1.016-2.228 1.783-3.066a7.704 7.704 0 012.743-1.925c1.062-.445 2.233-.667 3.513-.667 1.301 0 2.484.222 3.551.667a7.54 7.54 0 012.736 1.925c.757.838 1.344 1.86 1.761 3.067.416 1.206.625 2.567.625 4.08 0 1.523-.209 2.885-.625 4.087-.417 1.201-1.004 2.221-1.761 3.06a7.459 7.459 0 01-2.736 1.917c-1.067.44-2.25.66-3.551.66-1.28 0-2.451-.22-3.513-.66zM116.88 1.623c-1.336.526-2.472 1.273-3.406 2.239-.935.966-1.657 2.132-2.164 3.497-.509 1.365-.762 2.886-.762 4.562 0 1.678.253 3.2.762 4.571.507 1.37 1.222 2.538 2.141 3.505a9.455 9.455 0 003.307 2.239c1.286.526 2.706.79 4.26.79.905 0 1.738-.054 2.5-.162a14.17 14.17 0 002.134-.46 11.14 11.14 0 001.859-.743 14.093 14.093 0 001.677-1.013v-7.714h-5.96v.859a.33.33 0 00.114.245.4.4 0 00.283.107h4.145v5.844c-.478.276-.953.524-1.425.744-.473.22-.97.406-1.494.56a10.84 10.84 0 01-1.699.345c-.61.076-1.285.115-2.027.115-1.331 0-2.548-.226-3.65-.675a7.92 7.92 0 01-2.835-1.94c-.788-.844-1.4-1.874-1.837-3.09-.437-1.218-.655-2.592-.655-4.127 0-1.503.216-2.857.647-4.064.432-1.206 1.047-2.229 1.845-3.067a8.025 8.025 0 012.888-1.933c1.128-.45 2.393-.674 3.795-.674 1.057 0 1.956.097 2.698.291.742.194 1.359.414 1.851.66.493.245.885.48 1.174.705.29.225.511.368.663.43a.571.571 0 00.259.06c.163 0 .29-.076.381-.23l.412-.674c-.478-.42-.976-.79-1.494-1.112a9.091 9.091 0 00-1.676-.813c-.6-.22-1.248-.386-1.944-.499a14.318 14.318 0 00-2.278-.168c-1.656 0-3.152.263-4.489.79zm119.913-.545a.983.983 0 00-.335.046c-.082.031-.163.112-.244.246l-8.474 15.076a4.399 4.399 0 00-.222.452c-.065.159-.129.32-.19.484a6.303 6.303 0 00-.396-.92L218.229 1.37c-.081-.134-.165-.215-.251-.246a1.06 1.06 0 00-.343-.046h-1.067V22.78h1.356V4.284a8.29 8.29 0 00-.046-.86l8.719 15.185c.152.265.355.398.61.398h.243c.264 0 .467-.133.61-.398l8.489-15.169c-.03.296-.046.578-.046.844V22.78h1.372V1.078h-1.082zm-26.259 0V11.2H197.03V1.078h-1.569V22.78h1.569V12.382h13.504V22.78h1.57V1.078h-1.57zm-33.62 0v1.334h7.621V22.78h1.554V2.412h7.575V1.078h-16.75zm-3.945 21.702h1.57V1.078h-1.57V22.78zM155.566 1.078V22.78h1.554v-9.816h2.82c.417 0 .724.046.922.138.199.093.384.25.556.476l6.905 8.803c.112.144.226.246.343.307a.888.888 0 00.419.092h1.356l-7.422-9.386a2.471 2.471 0 00-.656-.613c.945-.103 1.794-.32 2.546-.652a6.548 6.548 0 001.928-1.273 5.34 5.34 0 001.227-1.802c.284-.686.426-1.442.426-2.27 0-1.871-.614-3.29-1.844-4.257-1.229-.966-3.089-1.449-5.578-1.449h-5.502zm1.554 1.243h3.948c1.921 0 3.383.373 4.389 1.119 1.006.746 1.51 1.892 1.51 3.436 0 .756-.138 1.436-.412 2.04a4.258 4.258 0 01-1.197 1.549c-.523.429-1.163.759-1.92.989-.757.23-1.613.345-2.568.345h-3.75V2.321zM99.424 1.078V22.78h11.781v-1.334h-10.227V1.078h-1.554zm-11.856 0L78.743 22.78h1.19a.565.565 0 00.365-.123.658.658 0 00.213-.291l2.53-6.303h10.593l2.546 6.303a.76.76 0 00.213.3.526.526 0 00.35.114h1.205L89.123 1.078h-1.555zm.35 2.868c.072-.184.143-.386.214-.606.071-.22.142-.452.213-.698.072.246.143.479.214.698.07.22.142.417.213.591l4.405 10.966h-9.663l4.405-10.95zm55.922 34.5a9.657 9.657 0 00-3.338 2.27c-.93.977-1.651 2.145-2.164 3.505-.513 1.36-.77 2.863-.77 4.51 0 1.676.249 3.2.747 4.57s1.191 2.538 2.081 3.504a9.101 9.101 0 003.2 2.24c.947.4 1.965.648 3.055.744h2.218c.455-.036.886-.095 1.296-.177a10.116 10.116 0 002.058-.629 9.068 9.068 0 001.729-.981 10.115 10.115 0 001.464-1.296l-.61-.66a.352.352 0 00-.259-.107.326.326 0 00-.16.038 1.083 1.083 0 00-.145.1 10.79 10.79 0 01-1.296 1.043 7.49 7.49 0 01-1.417.752 8.079 8.079 0 01-1.669.46c-.604.102-1.293.153-2.065.153-1.23 0-2.37-.223-3.421-.667a7.858 7.858 0 01-2.736-1.918c-.773-.833-1.377-1.852-1.814-3.06-.437-1.206-.656-2.576-.656-4.11 0-1.492.221-2.84.663-4.04.442-1.202 1.06-2.224 1.852-3.068a8.093 8.093 0 012.835-1.948c1.098-.455 2.301-.682 3.612-.682.712 0 1.346.053 1.906.16a9.37 9.37 0 011.478.4 6.37 6.37 0 011.105.52c.31.19.574.364.793.522.218.159.398.292.54.399.143.107.259.16.351.16.173 0 .3-.06.381-.183l.472-.69a12.06 12.06 0 00-1.463-1.135 8.529 8.529 0 00-1.592-.82 9.826 9.826 0 00-1.821-.507 12.103 12.103 0 00-2.15-.176c-1.565 0-2.995.268-4.29.805zm29.619-.559V48.01h-13.503V37.887h-1.57V59.59h1.57V49.191h13.503v10.398h1.57V37.887h-1.57zm-51.298 0v1.334h7.621V59.59h1.555V39.221h7.574v-1.334h-16.75zm-7.435 0l-8.825 21.702h1.189a.56.56 0 00.366-.123.664.664 0 00.213-.29l2.53-6.305h10.593l2.545 6.304a.762.762 0 00.214.3.527.527 0 00.35.114h1.204l-8.824-21.702h-1.555zm.35 2.868c.072-.184.143-.386.214-.605.071-.22.142-.453.213-.698.071.245.142.478.214.698.071.22.142.416.213.59l4.405 10.966h-9.663l4.404-10.951zm-7.938-2.868a.594.594 0 00-.373.123.545.545 0 00-.206.291l-5.441 17.837a5.679 5.679 0 00-.152.652c-.041.23-.087.468-.138.713a15.744 15.744 0 00-.16-.72 7.414 7.414 0 00-.19-.645l-6.097-17.837a.762.762 0 00-.213-.299.527.527 0 00-.351-.115h-.427a.564.564 0 00-.365.123.654.654 0 00-.214.291l-6.096 17.837a5.584 5.584 0 00-.183.66c-.051.235-.102.48-.153.736l-.144-.736a7.067 7.067 0 00-.16-.66l-5.442-17.837c-.081-.276-.269-.414-.563-.414h-1.296L85.57 59.59h1.388l6.385-18.834c.082-.245.153-.506.214-.782.061.276.132.537.213.782l6.371 18.834h1.403l6.782-21.702h-1.189z" fill="#fff"/></mask><g mask="url(#a)"><path fill-rule="evenodd" clip-rule="evenodd" d="M78.157 60.424h160.304V.243H78.157v60.181z" fill="#676666"/></g><path fill-rule="evenodd" clip-rule="evenodd" d="M33.396 39.6l-.417-.724H12.565L22.773 21.11c-.132-.258-.425-.968-.058-1.608.13-.227.368-.484.798-.619a1.305 1.305 0 00-.483-.095c-.374 0-.911.162-1.352.928L11.098 38.13c-.09.155-.513.964-.1 1.684.186.325.593.713 1.473.713h21.166c.085 0 .338-.01.622-.096-.284-.116-.592-.358-.863-.83z" fill="#16759C"/><path fill-rule="evenodd" clip-rule="evenodd" d="M56.561 38.13L45.98 19.717c-.09-.155-.575-.927-1.4-.927-.137 0-.296.022-.463.086.319.092.687.28.91.67.185.322.313.863-.112 1.618l10.179 17.712H34.738l-.417.724c-.07.123-.395.639-.941.843.18.052.39.084.64.084h21.167c.178 0 1.086-.036 1.498-.756.187-.325.317-.874-.124-1.641z" fill="#A7120E"/><path fill-rule="evenodd" clip-rule="evenodd" d="M44.466 18.79H23.3c-.88 0-1.287.388-1.473.713-.413.72.01 1.53.1 1.684L32.506 39.6c.44.766.978.927 1.352.927.826 0 1.311-.772 1.4-.927L45.84 21.187c.44-.767.31-1.315.124-1.641-.413-.72-1.32-.756-1.499-.756zm-21.072 1.65h20.98l-10.49 18.254-10.49-18.254z" fill="#1E6C25"/></svg>
