<svg width="1418" height="974" viewBox="0 0 1418 974" fill="none" xmlns="http://www.w3.org/2000/svg">
<path d="M617 -17.5L558 215.5V503L355 752V865" stroke="#4A4A4A" stroke-opacity="0.64"/>
<path d="M1342 354L1559 629V922" stroke="#4A4A4A" stroke-opacity="0.64"/>
<path d="M617 -17.5C622.2 -12.3 763 131.333 834 202L953 495.5V793.5" stroke="#4A4A4A" stroke-opacity="0.64"/>
<path d="M617.5 -18L386.5 223L169.5 537" stroke="#4A4A4A" stroke-opacity="0.64"/>
<path d="M559.5 218C568.7 226.4 695.667 347.167 758 406.5" stroke="#4A4A4A" stroke-opacity="0.64"/>
<path d="M835.5 202.5L1213.5 480.5" stroke="#4A4A4A" stroke-opacity="0.64"/>
<path d="M1347 356.5L1213.5 479.5" stroke="#4A4A4A" stroke-opacity="0.64"/>
<path d="M559.5 505.5L758.5 760.5" stroke="#4A4A4A" stroke-opacity="0.64"/>
<path d="M388 217.5L439 348" stroke="#4A4A4A" stroke-opacity="0.64"/>
<path d="M1214 474.5L1087 663.5" stroke="#4A4A4A" stroke-opacity="0.64"/>
<path d="M1214 473L1345 662.5" stroke="#4A4A4A" stroke-opacity="0.64"/>
<path d="M167 532L19.5 669.5" stroke="#4A4A4A" stroke-opacity="0.64"/>
<path d="M168 529L356 747" stroke="#4A4A4A" stroke-opacity="0.64"/>
<rect x="413" y="327" width="39.2308" height="40" fill="white"/>
<rect x="413.5" y="327.5" width="38.2308" height="39" stroke="#4A4A4A" stroke-opacity="0.64"/>
<rect x="150" y="509" width="39.2308" height="40" fill="white"/>
<rect x="150.5" y="509.5" width="38.2308" height="39" stroke="#4A4A4A" stroke-opacity="0.64"/>
<rect x="540" y="480" width="39.2308" height="40" fill="white"/>
<rect x="540.5" y="480.5" width="38.2308" height="39" stroke="#4A4A4A" stroke-opacity="0.64"/>
<rect x="336" y="847" width="39.2308" height="40" fill="white"/>
<rect x="336.5" y="847.5" width="38.2308" height="39" stroke="#4A4A4A" stroke-opacity="0.64"/>
<rect x="933" y="474" width="39.2308" height="40" fill="white"/>
<rect x="933.5" y="474.5" width="38.2308" height="39" stroke="#4A4A4A" stroke-opacity="0.64"/>
<rect x="1319" y="638" width="39.2308" height="40" fill="white"/>
<rect x="1319.5" y="638.5" width="38.2308" height="39" stroke="#4A4A4A" stroke-opacity="0.64"/>
<path d="M762.5 759L599 950.5" stroke="#4A4A4A" stroke-opacity="0.64"/>
<path d="M757 759L899 954" stroke="#4A4A4A" stroke-opacity="0.64"/>
<rect x="1188" y="454" width="39.2308" height="40" fill="white"/>
<rect x="1188.5" y="454.5" width="38.2308" height="39" stroke="#4A4A4A" stroke-opacity="0.64"/>
<rect x="1325" y="344" width="39.2308" height="40" rx="19.6154" fill="white"/>
<rect x="1325.5" y="344.5" width="38.2308" height="39" rx="19.1154" stroke="#4A4A4A" stroke-opacity="0.64"/>
<rect x="811" y="177" width="39.2308" height="40" rx="19.6154" fill="white"/>
<rect x="811.5" y="177.5" width="38.2308" height="39" rx="19.1154" stroke="#4A4A4A" stroke-opacity="0.64"/>
<rect x="740" y="388" width="39.2308" height="40" fill="white"/>
<rect x="740.5" y="388.5" width="38.2308" height="39" stroke="#4A4A4A" stroke-opacity="0.64"/>
<rect x="540" y="192" width="39.2308" height="40" fill="white"/>
<rect x="540.5" y="192.5" width="38.2308" height="39" stroke="#4A4A4A" stroke-opacity="0.64"/>
<path d="M421.25 345.25C421.211 345.25 421.211 345.25 421.211 345.25C420.547 345.25 420 345.836 420 346.5V351.5C420 351.539 419.961 351.539 419.961 351.539C419.961 352.203 420.547 352.75 421.211 352.75H421.25H422.5V345.25H421.25ZM441.25 343.375C441.25 341.656 439.844 340.25 438.125 340.25H433.75V337.75C433.75 337.086 433.164 336.5 432.5 336.5C431.797 336.5 431.25 337.086 431.25 337.75V340.25H426.875C426.836 340.25 426.836 340.25 426.836 340.25C425.117 340.25 423.75 341.656 423.75 343.375V354C423.75 355.406 424.844 356.5 426.25 356.5H438.75C440.117 356.5 441.211 355.406 441.25 354V343.375ZM430.312 346.5C430.312 347.398 429.609 348.062 428.75 348.062C427.852 348.062 427.188 347.398 427.188 346.5C427.188 345.641 427.852 344.938 428.75 344.938C429.609 344.938 430.312 345.641 430.312 346.5ZM430 351.5V352.75H427.5V351.5H430ZM433.75 351.5V352.75H431.25V351.5H433.75ZM437.812 346.5C437.812 347.398 437.109 348.062 436.25 348.062C435.352 348.062 434.688 347.398 434.688 346.5C434.688 345.641 435.352 344.938 436.25 344.938C437.109 344.938 437.812 345.641 437.812 346.5ZM437.5 351.5V352.75H435V351.5H437.5ZM445 346.5C445 345.836 444.414 345.25 443.75 345.25H442.5V352.75H443.75V352.789C444.414 352.789 445 352.203 445 351.539V351.5V346.5Z" fill="#4A4A4A" fill-opacity="0.64"/>
<path d="M1196.25 473.25C1196.21 473.25 1196.21 473.25 1196.21 473.25C1195.55 473.25 1195 473.836 1195 474.5V479.5C1195 479.539 1194.96 479.539 1194.96 479.539C1194.96 480.203 1195.55 480.75 1196.21 480.75H1196.25H1197.5V473.25H1196.25ZM1216.25 471.375C1216.25 469.656 1214.84 468.25 1213.12 468.25H1208.75V465.75C1208.75 465.086 1208.16 464.5 1207.5 464.5C1206.8 464.5 1206.25 465.086 1206.25 465.75V468.25H1201.88C1201.84 468.25 1201.84 468.25 1201.84 468.25C1200.12 468.25 1198.75 469.656 1198.75 471.375V482C1198.75 483.406 1199.84 484.5 1201.25 484.5H1213.75C1215.12 484.5 1216.21 483.406 1216.25 482V471.375ZM1205.31 474.5C1205.31 475.398 1204.61 476.062 1203.75 476.062C1202.85 476.062 1202.19 475.398 1202.19 474.5C1202.19 473.641 1202.85 472.938 1203.75 472.938C1204.61 472.938 1205.31 473.641 1205.31 474.5ZM1205 479.5V480.75H1202.5V479.5H1205ZM1208.75 479.5V480.75H1206.25V479.5H1208.75ZM1212.81 474.5C1212.81 475.398 1212.11 476.062 1211.25 476.062C1210.35 476.062 1209.69 475.398 1209.69 474.5C1209.69 473.641 1210.35 472.938 1211.25 472.938C1212.11 472.938 1212.81 473.641 1212.81 474.5ZM1212.5 479.5V480.75H1210V479.5H1212.5ZM1220 474.5C1220 473.836 1219.41 473.25 1218.75 473.25H1217.5V480.75H1218.75V480.789C1219.41 480.789 1220 480.203 1220 479.539V479.5V474.5Z" fill="#4A4A4A" fill-opacity="0.64"/>
<path d="M158.25 528.25C158.211 528.25 158.211 528.25 158.211 528.25C157.547 528.25 157 528.836 157 529.5V534.5C157 534.539 156.961 534.539 156.961 534.539C156.961 535.203 157.547 535.75 158.211 535.75H158.25H159.5V528.25H158.25ZM178.25 526.375C178.25 524.656 176.844 523.25 175.125 523.25H170.75V520.75C170.75 520.086 170.164 519.5 169.5 519.5C168.797 519.5 168.25 520.086 168.25 520.75V523.25H163.875C163.836 523.25 163.836 523.25 163.836 523.25C162.117 523.25 160.75 524.656 160.75 526.375V537C160.75 538.406 161.844 539.5 163.25 539.5H175.75C177.117 539.5 178.211 538.406 178.25 537V526.375ZM167.312 529.5C167.312 530.398 166.609 531.062 165.75 531.062C164.852 531.062 164.188 530.398 164.188 529.5C164.188 528.641 164.852 527.938 165.75 527.938C166.609 527.938 167.312 528.641 167.312 529.5ZM167 534.5V535.75H164.5V534.5H167ZM170.75 534.5V535.75H168.25V534.5H170.75ZM174.812 529.5C174.812 530.398 174.109 531.062 173.25 531.062C172.352 531.062 171.688 530.398 171.688 529.5C171.688 528.641 172.352 527.938 173.25 527.938C174.109 527.938 174.812 528.641 174.812 529.5ZM174.5 534.5V535.75H172V534.5H174.5ZM182 529.5C182 528.836 181.414 528.25 180.75 528.25H179.5V535.75H180.75V535.789C181.414 535.789 182 535.203 182 534.539V534.5V529.5Z" fill="#4A4A4A" fill-opacity="0.64"/>
<path d="M389.5 221C381.5 221 235.167 276.833 200 294" stroke="#4A4A4A" stroke-opacity="0.64"/>
<rect x="174" y="274" width="39.2308" height="40" fill="white"/>
<rect x="174.5" y="274.5" width="38.2308" height="39" stroke="#4A4A4A" stroke-opacity="0.64"/>
<rect x="368" y="198" width="39.2308" height="40" rx="19.6154" fill="white"/>
<rect x="368.5" y="198.5" width="38.2308" height="39" rx="19.1154" stroke="#4A4A4A" stroke-opacity="0.64"/>
<rect y="650" width="39.2308" height="40" fill="white"/>
<rect x="0.5" y="650.5" width="38.2308" height="39" stroke="#4A4A4A" stroke-opacity="0.64"/>
<rect x="336" y="727" width="39.2308" height="40" rx="19.6154" fill="white"/>
<rect x="336.5" y="727.5" width="38.2308" height="39" rx="19.1154" stroke="#4A4A4A" stroke-opacity="0.64"/>
<rect x="739" y="747" width="39.2308" height="40" rx="19.6154" fill="white"/>
<rect x="739.5" y="747.5" width="38.2308" height="39" rx="19.1154" stroke="#4A4A4A" stroke-opacity="0.64"/>
<rect x="933" y="772" width="39.2308" height="40" fill="white"/>
<rect x="933.5" y="772.5" width="38.2308" height="39" stroke="#4A4A4A" stroke-opacity="0.64"/>
<rect x="1067" y="643" width="39.2308" height="40" rx="19.6154" fill="white"/>
<rect x="1067.5" y="643.5" width="38.2308" height="39" rx="19.1154" stroke="#4A4A4A" stroke-opacity="0.64"/>
<path d="M941.25 791.25C941.211 791.25 941.211 791.25 941.211 791.25C940.547 791.25 940 791.836 940 792.5V797.5C940 797.539 939.961 797.539 939.961 797.539C939.961 798.203 940.547 798.75 941.211 798.75H941.25H942.5V791.25H941.25ZM961.25 789.375C961.25 787.656 959.844 786.25 958.125 786.25H953.75V783.75C953.75 783.086 953.164 782.5 952.5 782.5C951.797 782.5 951.25 783.086 951.25 783.75V786.25H946.875C946.836 786.25 946.836 786.25 946.836 786.25C945.117 786.25 943.75 787.656 943.75 789.375V800C943.75 801.406 944.844 802.5 946.25 802.5H958.75C960.117 802.5 961.211 801.406 961.25 800V789.375ZM950.312 792.5C950.312 793.398 949.609 794.062 948.75 794.062C947.852 794.062 947.188 793.398 947.188 792.5C947.188 791.641 947.852 790.938 948.75 790.938C949.609 790.938 950.312 791.641 950.312 792.5ZM950 797.5V798.75H947.5V797.5H950ZM953.75 797.5V798.75H951.25V797.5H953.75ZM957.812 792.5C957.812 793.398 957.109 794.062 956.25 794.062C955.352 794.062 954.688 793.398 954.688 792.5C954.688 791.641 955.352 790.938 956.25 790.938C957.109 790.938 957.812 791.641 957.812 792.5ZM957.5 797.5V798.75H955V797.5H957.5ZM965 792.5C965 791.836 964.414 791.25 963.75 791.25H962.5V798.75H963.75V798.789C964.414 798.789 965 798.203 965 797.539V797.5V792.5Z" fill="#4A4A4A" fill-opacity="0.64"/>
<rect x="879" y="931" width="39.2308" height="40" fill="white"/>
<rect x="879.5" y="931.5" width="38.2308" height="39" stroke="#4A4A4A" stroke-opacity="0.64"/>
<rect x="578" y="934" width="39.2308" height="40" fill="white"/>
<rect x="578.5" y="934.5" width="38.2308" height="39" stroke="#4A4A4A" stroke-opacity="0.64"/>
</svg>
