<svg width="685" height="169" fill="none" xmlns="http://www.w3.org/2000/svg"><path d="M269.031 31.625v67.008c0 7.594-1.617 14.179-4.851 19.758-3.235 5.531-7.875 9.75-13.922 12.656-6.047 2.906-13.196 4.359-21.446 4.359-12.468 0-22.289-3.234-29.46-9.703-7.172-6.469-10.829-15.328-10.969-26.578v-67.5h24.82v67.992c.281 11.203 5.485 16.805 15.609 16.805 5.11 0 8.977-1.406 11.602-4.219 2.625-2.812 3.938-7.383 3.938-13.71V31.624h24.679zM364.24 134h-24.539L303.42 70.297V134h-24.68V31.625h24.68l36.211 63.703V31.625h24.609V134zm9.849 0V31.625h32.977c9.047 0 17.18 2.063 24.398 6.188 7.219 4.078 12.844 9.867 16.875 17.367 4.078 7.453 6.141 15.82 6.188 25.101v4.711c0 9.375-1.992 17.789-5.977 25.242-3.937 7.407-9.515 13.219-16.734 17.438-7.172 4.172-15.188 6.281-24.047 6.328h-33.68zm24.68-83.32v64.336h8.578c7.078 0 12.516-2.508 16.313-7.524 3.797-5.062 5.695-12.562 5.695-22.5v-4.43c0-9.89-1.898-17.343-5.695-22.359-3.797-5.016-9.328-7.523-16.594-7.523h-8.297zM487.72 134h-24.609V31.625h24.609V134zm96.896 0h-24.539l-36.281-63.703V134h-24.68V31.625h24.68l36.211 63.703V31.625h24.609V134zm93.662-12.656c-3.797 4.218-9.351 7.617-16.664 10.195-7.312 2.578-15.328 3.867-24.047 3.867-13.406 0-24.117-4.101-32.133-12.304-8.015-8.204-12.304-19.618-12.867-34.243l-.07-8.859c0-10.078 1.781-18.867 5.344-26.367 3.562-7.547 8.648-13.336 15.257-17.367 6.657-4.078 14.344-6.118 23.063-6.118 12.75 0 22.641 2.93 29.672 8.79 7.078 5.812 11.203 14.507 12.375 26.085h-23.766c-.844-5.718-2.672-9.796-5.484-12.234-2.813-2.437-6.797-3.656-11.953-3.656-6.188 0-10.969 2.625-14.344 7.875s-5.086 12.75-5.133 22.5v6.187c0 10.22 1.735 17.907 5.203 23.063 3.516 5.109 9.024 7.664 16.524 7.664 6.422 0 11.203-1.43 14.343-4.289v-15.89h-17.156V79.296h41.836v42.047z" fill="#312509"/><path d="M122 20c0-11.046-8.954-20-20-20H20C8.954 0 0 8.954 0 20v102h102c11.046 0 20-8.954 20-20V20z" fill="#463B22"/><path opacity=".7" d="M43 37c0-11.046 8.954-20 20-20h82c11.046 0 20 8.954 20 20v102H63c-11.046 0-20-8.954-20-20V37z" fill="#DBA760"/></svg>