<svg width="685" height="169" viewBox="0 0 685 169" fill="none" xmlns="http://www.w3.org/2000/svg">
<g clip-path="url(#clip0)">
<path d="M269.031 40.625V107.633C269.031 115.227 267.414 121.812 264.18 127.391C260.945 132.922 256.305 137.141 250.258 140.047C244.211 142.953 237.062 144.406 228.812 144.406C216.344 144.406 206.523 141.172 199.352 134.703C192.18 128.234 188.523 119.375 188.383 108.125V40.625H213.203V108.617C213.484 119.82 218.688 125.422 228.812 125.422C233.922 125.422 237.789 124.016 240.414 121.203C243.039 118.391 244.352 113.82 244.352 107.492V40.625H269.031ZM364.24 143H339.701L303.42 79.2969V143H278.74V40.625H303.42L339.631 104.328V40.625H364.24V143ZM374.089 143V40.625H407.066C416.113 40.625 424.246 42.6875 431.464 46.8125C438.683 50.8906 444.308 56.6797 448.339 64.1797C452.417 71.6328 454.48 80 454.527 89.2812V93.9922C454.527 103.367 452.535 111.781 448.55 119.234C444.613 126.641 439.035 132.453 431.816 136.672C424.644 140.844 416.628 142.953 407.769 143H374.089ZM398.769 59.6797V124.016H407.347C414.425 124.016 419.863 121.508 423.66 116.492C427.457 111.43 429.355 103.93 429.355 93.9922V89.5625C429.355 79.6719 427.457 72.2188 423.66 67.2031C419.863 62.1875 414.332 59.6797 407.066 59.6797H398.769ZM487.72 143H463.111V40.625H487.72V143ZM584.616 143H560.077L523.796 79.2969V143H499.116V40.625H523.796L560.007 104.328V40.625H584.616V143ZM678.278 130.344C674.481 134.562 668.927 137.961 661.614 140.539C654.302 143.117 646.286 144.406 637.567 144.406C624.161 144.406 613.45 140.305 605.434 132.102C597.419 123.898 593.13 112.484 592.567 97.8594L592.497 89C592.497 78.9219 594.278 70.1328 597.841 62.6328C601.403 55.0859 606.489 49.2969 613.098 45.2656C619.755 41.1875 627.442 39.1484 636.161 39.1484C648.911 39.1484 658.802 42.0781 665.833 47.9375C672.911 53.75 677.036 62.4453 678.208 74.0234H654.442C653.598 68.3047 651.77 64.2266 648.958 61.7891C646.145 59.3516 642.161 58.1328 637.005 58.1328C630.817 58.1328 626.036 60.7578 622.661 66.0078C619.286 71.2578 617.575 78.7578 617.528 88.5078V94.6953C617.528 104.914 619.263 112.602 622.731 117.758C626.247 122.867 631.755 125.422 639.255 125.422C645.677 125.422 650.458 123.992 653.598 121.133V105.242H636.442V88.2969H678.278V130.344Z" fill="#312509"/>
<path d="M122 20C122 8.95431 113.046 0 102 0H27C15.9543 0 7 8.95431 7 20V115H102C113.046 115 122 106.046 122 95V20Z" fill="#463B22"/>
<path opacity="0.7" d="M43 46C43 34.9543 51.9543 26 63 26H145C156.046 26 165 34.9543 165 46V148H63C51.9543 148 43 139.046 43 128V46Z" fill="#5A91C2"/>
</g>
<defs>
<clipPath id="clip0">
<rect width="685" height="169" fill="white"/>
</clipPath>
</defs>
</svg>
