<?xml version="1.0" standalone="no"?>
<!DOCTYPE svg PUBLIC "-//W3C//DTD SVG 20010904//EN"
 "http://www.w3.org/TR/2001/REC-SVG-20010904/DTD/svg10.dtd">
<svg version="1.0" xmlns="http://www.w3.org/2000/svg"
 width="260.000000pt" height="260.000000pt" viewBox="0 0 260.000000 260.000000"
 preserveAspectRatio="xMidYMid meet">
<metadata>
Created by potrace 1.11, written by Peter Selinger 2001-2013
</metadata>
<g transform="translate(0.000000,260.000000) scale(0.100000,-0.100000)"
fill="#000000" stroke="none">
<path d="M766 2334 c-146 -35 -289 -147 -358 -280 -69 -131 -69 -137 -66 -783
l3 -576 26 -67 c70 -179 210 -307 386 -353 48 -13 173 -15 785 -15 l728 0 0
798 c0 764 -1 802 -20 876 -11 43 -34 103 -52 134 -71 124 -218 233 -359 267
-91 21 -984 21 -1073 -1z m254 -564 c147 -75 134 -289 -22 -354 -143 -60 -299
80 -259 232 14 50 57 103 103 125 46 23 130 21 178 -3z m774 -14 c149 -113 87
-333 -99 -354 -116 -13 -229 109 -208 222 21 110 94 168 204 163 55 -2 73 -7
103 -31z"/>
</g>
</svg>
